<svg id="Layer_1" data-name="Layer 1" xmlns="http://www.w3.org/2000/svg" viewBox="0 0 348 483.9"><title>logo-motherly (pink)</title><path d="M485.8,326.6c-.1.9-.2,1.9-.3,2.8h-.1c.1-1,.3-1.9.4-2.8" transform="translate(-225.3 -158.5)"/><path d="M405.3,437.3a57.28,57.28,0,0,0-4.7,12.1c-8.6-28.2-44-44.8-76.6-20-16.9,22.2-14.7,45.8-2.5,61.3a62.13,62.13,0,0,0-8.2,4c-13.5-18.5-15.5-45.8,4-71.7,35.2-27,73.3-13.5,88,14.3" transform="translate(-225.3 -158.5)" fill="#ff9a9a"/><rect x="0.1" width="347.9" height="483.6" fill="none"/><ellipse cx="236.2" cy="108.5" rx="8.5" ry="5" fill="#fab5be"/><ellipse cx="119.2" cy="108.5" rx="8.5" ry="5" fill="#fab5be"/><path d="M373,251.6l-1.1-3c-12.1,4.5-17.8-3.5-18.1-3.9l-1.2.9,1.2-.9-2.4,1.8c.1.1,6.6,9.5,19.6,5.7a15.19,15.19,0,0,0,2-.6" transform="translate(-225.3 -158.5)" fill="#ff9a9a"/><path d="M354.8,247.7l-.5-1.5c-6.6,1.9-9.2-.6-9.2-.6l-1,1.1c.1.1,3.1,3.3,10.5,1.1Z" transform="translate(-225.3 -158.5)" fill="#ff9a9a"/><path d="M359.7,251l-1-1.2c-5.3,4.6-8.6,3.3-8.6,3.3l-.3.7.3-.7-.6,1.4a6.92,6.92,0,0,0,4.2,0,16.08,16.08,0,0,0,6-3.5" transform="translate(-225.3 -158.5)" fill="#ff9a9a"/><path d="M452.4,251.8l-1-3c-12.3,4.4-18.1-3.8-18.4-4.2l-1.2.9,1.2-.9-2.4,1.8c.1.1,6.6,9.7,19.9,6.1.5-.2,1.2-.4,1.9-.7" transform="translate(-225.3 -158.5)" fill="#ff9a9a"/><path d="M434.3,247.7l-.4-1.5-.2.1c-6.5,1.8-9-.8-9-.8l-1.1,1.1c.1.1,3,3.3,10.5,1.3Z" transform="translate(-225.3 -158.5)" fill="#ff9a9a"/><path d="M438.8,251.1l-1-1.3c-5.4,4.7-8.8,3.2-8.8,3.2l-.3.7.3-.7-.6,1.4a6.46,6.46,0,0,0,4.3,0,13.21,13.21,0,0,0,6.1-3.3" transform="translate(-225.3 -158.5)" fill="#ff9a9a"/><path d="M374.5,446.9a19.35,19.35,0,0,1-4-.4l.6-3.4c4.2.7,7.3.2,9-1.4a7,7,0,0,0,1.7-5.1l3.4-.4c0,.2.6,4.9-2.7,8a11.39,11.39,0,0,1-8,2.7" transform="translate(-225.3 -158.5)" fill="#ff9a9a"/><path d="M330.8,468.3a19.35,19.35,0,0,1-4-.4l.6-3.4c4.2.7,7.3.2,9-1.4a7,7,0,0,0,1.7-5.1l3.4-.4c0,.2.6,4.9-2.7,8a11.39,11.39,0,0,1-8,2.7" transform="translate(-225.3 -158.5)" fill="#ff9a9a"/><path d="M525.5,360h0a161.4,161.4,0,0,0-15-13.6,10.59,10.59,0,0,1-1.2-1,17.54,17.54,0,0,1-6-13.3,16.2,16.2,0,0,1,1.3-6.6h0c.2-.4.4-.7.6-1.1.3-.6.7-1.3,1-1.9h0c.2-.5.5-1,.7-1.4h0c.1-.3.3-.7.4-1,.3-.6.6-1.3.9-1.9,1-2.2,2-4.5,2.8-6.8.6-1.6,1.2-3.3,1.7-4.9.3-.9.6-1.9.9-2.8h0a105.06,105.06,0,0,0,3.8-18.7,114.12,114.12,0,0,0,.8-13.2,113,113,0,0,0-224.6-17.6h0a113,113,0,0,0-1.4,17.6,110.26,110.26,0,0,0,1,15.3h0a106.91,106.91,0,0,0,3.6,16.8h0c.6,1.9,1.2,3.8,1.9,5.7h0a31.21,31.21,0,0,1,1.5,3.9c1.3,3.2,1.9,4.8,0,0a24.63,24.63,0,0,1,.9,6.7,24.3,24.3,0,0,1-8,18.1h0l-.4.3c-.9.7-1.8,1.3-2.6,2a165.17,165.17,0,0,0-20.8,19.3,168.34,168.34,0,0,0,88.7,278v-1.4a65.82,65.82,0,0,1,1.1-11.9,10.5,10.5,0,0,0-7.3-12,146.13,146.13,0,0,1-50.1-253.5h0a38.62,38.62,0,0,0,19.7-27.4h0a40.8,40.8,0,0,0,.6-7.1,39.64,39.64,0,0,0-2.1-12.9,55.47,55.47,0,0,1-2.4-5.6h0a93.41,93.41,0,0,1-6.5-32.3c-1.2-52.9,42.6-97.2,95.5-96.5A94.39,94.39,0,0,1,493,306.1a80.28,80.28,0,0,1-5,10.7c-.4.7-.8,1.5-1.2,2.2a6.73,6.73,0,0,1-.7,1.1,31.83,31.83,0,0,0-3.2,8.1h0a29.73,29.73,0,0,0-1,8,31.39,31.39,0,0,0,9.6,23h0l.1.1c.3.3.7.6,1,.9a22,22,0,0,1,1.8,1.4l.1.1a146.26,146.26,0,0,1-47.9,255.4,10.56,10.56,0,0,0-7.3,12,66.67,66.67,0,0,1,1.1,11.9v1.4c75.8-16.4,132.7-83.8,132.7-164.6A166.62,166.62,0,0,0,525.5,360Z" transform="translate(-225.3 -158.5)" fill="#ff9a9a"/><rect x="0.1" width="347.9" height="483.6" fill="none"/><path d="M313,495.5s4.1,7.1,9.1,11.3c0,0-31,15.8-36,66.5l-12-14.6S277,518.5,313,495.5Z" transform="translate(-225.3 -158.5)" fill="#ff9a9a"/><ellipse cx="331.12" cy="478.81" rx="5.2" ry="3.4" transform="translate(-451.55 152.27) rotate(-38.56)" fill="#fab5be"/><ellipse cx="391.32" cy="448.28" rx="5.2" ry="3.4" transform="translate(-419.4 183.13) rotate(-38.56)" fill="#fab5be"/></svg>