<svg id="Layer_1" data-name="Layer 1" xmlns="http://www.w3.org/2000/svg" viewBox="0 0 347.89 483.61"><title>logo-motherly (white)</title><path d="M485.82,326.55c-.12.94-.24,1.87-.31,2.8l-.07,0c.1-.94.24-1.85.38-2.76" transform="translate(-225.44 -158.46)"/><path d="M405.34,437.26a53.68,53.68,0,0,0-4.69,12.14c-8.62-28.23-44-44.77-76.63-20-16.91,22.21-14.66,45.79-2.51,61.26a66.07,66.07,0,0,0-8.24,4c-13.48-18.53-15.54-45.78,4-71.75,35.23-26.93,73.33-13.47,88,14.32" transform="translate(-225.44 -158.46)" fill="#fff"/><rect width="347.89" height="483.61" fill="none"/><ellipse cx="236.06" cy="108.54" rx="8.5" ry="5" fill="#fab5be"/><ellipse cx="119.06" cy="108.54" rx="8.5" ry="5" fill="#fab5be"/><path d="M373,251.59l-1.07-3c-12.1,4.52-17.83-3.53-18.07-3.88l-1.18.89,1.19-.88-2.37,1.76c.07.1,6.61,9.45,19.56,5.71.63-.18,1.28-.4,1.94-.65" transform="translate(-225.44 -158.46)" fill="#fff"/><path d="M354.8,247.7l-.45-1.5c-6.6,1.93-9.21-.6-9.23-.63l-1,1.07c.12.14,3.06,3.28,10.49,1.13Z" transform="translate(-225.44 -158.46)" fill="#fff"/><path d="M359.66,251l-1-1.21c-5.27,4.64-8.56,3.28-8.58,3.27l-.27.72.27-.71-.55,1.42a6.29,6.29,0,0,0,4.24,0,15.63,15.63,0,0,0,5.86-3.48" transform="translate(-225.44 -158.46)" fill="#fff"/><path d="M452.37,251.81l-1.05-3C439,253.21,433.2,245,433,244.59l-1.21.9,1.22-.89-2.44,1.77c.07.1,6.62,9.72,19.86,6.08.65-.18,1.32-.39,2-.64" transform="translate(-225.44 -158.46)" fill="#fff"/><path d="M434.27,247.69l-.43-1.51-.22.06c-6.51,1.79-9-.78-9-.8l-1.06,1.05c.12.14,3,3.32,10.47,1.27Z" transform="translate(-225.44 -158.46)" fill="#fff"/><path d="M438.82,251.06l-1-1.26c-5.43,4.66-8.77,3.24-8.8,3.23l-.28.73.29-.73-.58,1.45a6.44,6.44,0,0,0,4.32,0,16,16,0,0,0,6-3.46" transform="translate(-225.44 -158.46)" fill="#fff"/><path d="M374.47,446.94a23.87,23.87,0,0,1-4-.37l.58-3.38c4.24.72,7.27.24,9-1.43a6.72,6.72,0,0,0,1.69-5.14l3.4-.44c0,.2.59,4.88-2.72,8.05-1.87,1.8-4.52,2.71-7.92,2.71" transform="translate(-225.44 -158.46)" fill="#fff"/><path d="M330.77,468.31a23.78,23.78,0,0,1-4-.37l.58-3.38c4.24.72,7.27.24,9-1.43A6.79,6.79,0,0,0,338,458l3.4-.43c0,.19.59,4.87-2.72,8-1.87,1.81-4.53,2.71-7.92,2.71" transform="translate(-225.44 -158.46)" fill="#fff"/><path d="M525.53,360h0a165.92,165.92,0,0,0-15-13.59,11.51,11.51,0,0,1-1.21-1,17.69,17.69,0,0,1-6-13.33,17.25,17.25,0,0,1,1.28-6.6l0,0,.6-1.12c.33-.64.67-1.27,1-1.93l0,0c.24-.49.49-1,.73-1.45v0c.13-.35.29-.68.43-1,.29-.65.59-1.29.92-1.9,1-2.24,2-4.52,2.84-6.83.61-1.62,1.19-3.26,1.71-4.91.31-.93.61-1.89.89-2.85v-.05a110.49,110.49,0,0,0,3.81-18.7,108.27,108.27,0,0,0,.79-13.19A114.37,114.37,0,0,0,517,254a113,113,0,0,0-223.21-.12v0a111.63,111.63,0,0,0-1.38,17.55,110.34,110.34,0,0,0,1.05,15.3h0A108,108,0,0,0,297,303.49v0c.56,1.92,1.19,3.83,1.87,5.7v0a22.84,22.84,0,0,1,1.47,3.92c1.27,3.22,1.89,4.77,0,0A24.5,24.5,0,0,1,293.31,338l-.05,0-.42.3c-.89.65-1.75,1.33-2.61,2a165.76,165.76,0,0,0-20.8,19.28,168.35,168.35,0,0,0,88.71,278,12.18,12.18,0,0,1-.05-1.35,65,65,0,0,1,1.12-11.91,10.58,10.58,0,0,0-7.33-12,146.15,146.15,0,0,1-50.1-253.51h0a38.64,38.64,0,0,0,19.68-27.39h0a39,39,0,0,0,.63-7.07A39.82,39.82,0,0,0,320,311.47c-.86-1.82-1.66-3.66-2.38-5.55h0a93.39,93.39,0,0,1-6.49-32.28c-1.21-52.95,42.56-97.17,95.53-96.49a94.35,94.35,0,0,1,86.52,128.78,87.42,87.42,0,0,1-5,10.69c-.39.75-.79,1.47-1.21,2.19-.23.38-.44.75-.68,1.12a31,31,0,0,0-3.22,8.1h0a32.21,32.21,0,0,0-1,8,31.45,31.45,0,0,0,9.62,23h0l.13.12c.34.31.68.62,1,.89.6.44,1.21.91,1.79,1.4l.1.07A146.17,146.17,0,0,1,446.9,616.79a10.52,10.52,0,0,0-7.31,12,63.93,63.93,0,0,1,1.1,11.9,12.27,12.27,0,0,1-.05,1.36A168.39,168.39,0,0,0,525.53,360Z" transform="translate(-225.44 -158.46)" fill="#fff"/><rect width="347.89" height="483.61" fill="none"/><path d="M313,495.54s4.1,7.11,9.12,11.27c0,0-31,15.79-36,66.47l-12-14.61S277,518.48,313,495.54Z" transform="translate(-225.44 -158.46)" fill="#fff"/><ellipse cx="331.12" cy="478.79" rx="5.21" ry="3.42" transform="translate(-451.68 152.29) rotate(-38.56)" fill="#fab5be"/><ellipse cx="391.28" cy="448.28" rx="5.21" ry="3.42" transform="translate(-419.55 183.14) rotate(-38.56)" fill="#fab5be"/></svg>